<?xml version="1.0" encoding="UTF-8"?>
<svg width="15px" height="28px" viewBox="0 0 15 28" version="1.1" xmlns="http://www.w3.org/2000/svg" xmlns:xlink="http://www.w3.org/1999/xlink">
    <!-- Generator: Sketch 59.1 (86144) - https://sketch.com -->
    <title>temperature</title>
    <desc>Created with Sketch.</desc>
    <g id="Login---Inscription" stroke="none" stroke-width="1" fill="none" fill-rule="evenodd">
        <g id="home" transform="translate(-296.000000, -92.000000)" fill-rule="nonzero">
            <g id="Group-2" transform="translate(224.000000, 82.000000)">
                <g id="temperature" transform="translate(72.000000, 10.000000)">
                    <path d="M9.80128177,17.2460022 L9.80128177,3.39938353 C9.80128177,1.52185059 8.27943112,0 6.40211184,0 C4.52457884,0 3.00272826,1.52185059 3.00272826,3.39938353 L3.00272826,17.2460022 C1.48173216,18.31604 0.48795775,20.0848389 0.48795775,22.085846 C0.48795775,25.3521423 3.13581543,28 6.40211184,28 C9.6684082,28 12.3162659,25.3521423 12.3162659,22.085846 C12.3162659,20.0848389 11.3222779,18.31604 9.80128177,17.2460022 L9.80128177,17.2460022 Z" id="Path" fill="#D8D8D8"></path>
                    <path d="M6.40211184,26.0630798 C4.14988405,26.0630798 2.31763919,24.2306214 2.31763919,21.9786072 C2.31763919,20.2683411 3.3804138,18.745636 4.97510989,18.1515503 L4.97510989,3.39938353 C4.97510989,2.61239623 5.61512448,1.97238158 6.40211184,1.97238158 C7.18888548,1.97238158 7.8291138,2.61239623 7.8291138,3.39938353 L7.8291138,18.1515503 C9.42359622,18.7454224 10.4865845,20.2681275 10.4865845,21.9783936 C10.4865845,24.2306214 8.65433959,26.0630798 6.40211184,26.0630798 Z" id="Path" fill="#F3E8D7"></path>
                    <path d="M4.97489623,16.3432312 L4.97489623,18.1515503 C3.3804138,18.745636 2.31742552,20.2683411 2.31742552,21.9786072 C2.31742552,24.2306214 4.14988405,26.0630798 6.40211184,26.0630798 C8.65412598,26.0630798 10.4865845,24.2306214 10.4865845,21.9786072 C10.4865845,20.2683411 9.42359622,18.745636 7.8291138,18.1515503 L7.8291138,16.3432312 L4.97489623,16.3432312 Z" id="Path" fill="#69E6ED"></path>
                    <g id="Group" transform="translate(11.604688, 2.132812)" fill="#0D6E9A">
                        <path d="M2.90505983,7.72290039 L0.453735352,7.72290039 C0.220245375,7.72290039 0.0311889375,7.53363034 0.0311889375,7.30035403 C0.0311889375,7.06707761 0.220245375,6.87780762 0.453735352,6.87780762 L2.90505983,6.87780762 C3.1383362,6.87780762 3.32739276,7.06707761 3.32739276,7.30035403 C3.32760619,7.53363034 3.1383362,7.72290039 2.90505983,7.72290039 L2.90505983,7.72290039 Z" id="Path"></path>
                        <path d="M1.56671145,4.29830931 L0.453735352,4.29830931 C0.220245375,4.29830931 0.0311889375,4.10903932 0.0311889375,3.87576295 C0.0311889375,3.64248659 0.220245375,3.45321654 0.453735352,3.45321654 L1.56671145,3.45321654 C1.79998777,3.45321654 1.98925781,3.64248659 1.98925781,3.87576295 C1.98925781,4.10903932 1.79998777,4.29830931 1.56671145,4.29830931 Z" id="Path"></path>
                        <path d="M1.96105957,0.873718234 L0.453735352,0.873718234 C0.220245375,0.873718234 0.0311889375,0.684448242 0.0311889375,0.451171875 C0.0311889375,0.217895508 0.220245375,0.0286255156 0.453735352,0.0286255156 L1.96105957,0.0286255156 C2.19454955,0.0286255156 2.38360598,0.217895508 2.38360598,0.451171875 C2.38360598,0.684448242 2.19454955,0.873718234 1.96105957,0.873718234 Z" id="Path"></path>
                        <path d="M1.96105957,14.5720825 L0.453735352,14.5720825 C0.220245375,14.5720825 0.0311889375,14.3828125 0.0311889375,14.1495361 C0.0311889375,13.9160462 0.220245375,13.7269897 0.453735352,13.7269897 L1.96105957,13.7269897 C2.19454955,13.7269897 2.38360598,13.9160462 2.38360598,14.1495361 C2.38360598,14.3828125 2.19454955,14.5720825 1.96105957,14.5720825 Z" id="Path"></path>
                        <path d="M1.56671145,11.1474915 L0.453735352,11.1474915 C0.220245375,11.1474915 0.0311889375,10.9582214 0.0311889375,10.7249451 C0.0311889375,10.4916687 0.220245375,10.3023987 0.453735352,10.3023987 L1.56671145,10.3023987 C1.79998777,10.3023987 1.98925781,10.4916687 1.98925781,10.7249451 C1.98925781,10.9582214 1.79998777,11.1474915 1.56671145,11.1474915 Z" id="Path"></path>
                    </g>
                </g>
            </g>
        </g>
    </g>
</svg>