<?xml version="1.0" encoding="UTF-8"?>
<svg width="35px" height="28px" viewBox="0 0 35 28" version="1.1" xmlns="http://www.w3.org/2000/svg" xmlns:xlink="http://www.w3.org/1999/xlink">
    <!-- Generator: Sketch 59.1 (86144) - https://sketch.com -->
    <title>weather</title>
    <desc>Created with Sketch.</desc>
    <g id="Login---Inscription" stroke="none" stroke-width="1" fill="none" fill-rule="evenodd">
        <g id="home" transform="translate(-236.000000, -92.000000)" fill-rule="nonzero">
            <g id="Group-2" transform="translate(224.000000, 82.000000)">
                <g id="weather" transform="translate(12.000000, 10.000000)">
                    <path d="M23.0402656,15.318153 C26.4894805,15.1187488 29.4472662,17.7533172 29.6466704,21.2025321 C29.8460746,24.651747 27.2115062,27.6095327 23.7622913,27.8089369 C23.5217899,27.8228387 23.2807671,27.8228387 23.0402656,27.8089369 L4.88101533,27.8089369 C2.18423633,27.8078074 -0.00112952275,25.6207038 -4.37654411e-07,22.9239248 C0.00112952275,20.2287097 2.18580029,18.044039 4.88101533,18.0429095 L5.22856079,18.0429095 C4.65276485,13.8863526 7.55546453,10.0499721 11.7120213,9.47417613 C15.8685782,8.89838019 19.7049587,11.8010799 20.2807547,15.9576367 C21.1391051,15.5350214 22.083473,15.3161547 23.0402656,15.318153 L23.0402656,15.318153 Z" id="Path" fill="#69E6ED"></path>
                    <path d="M19.2068392,3.13320921 C19.3105815,3.46676597 19.1242103,3.82126233 18.7906535,3.92500465 C18.4570968,4.02874697 18.1026004,3.84237572 17.9988581,3.50881897 C17.992776,3.48926953 17.9876497,3.46945944 17.9834792,3.44947558 L17.2883883,0.8220319 C17.1846459,0.488475144 17.3710172,0.133978775 17.7045739,0.030236455 C18.0381307,-0.0735058648 18.3926271,0.112865388 18.4963694,0.446422144 C18.5024514,0.465971576 18.5075777,0.485781667 18.5117483,0.505765531 L19.2068392,3.13320921 Z M14.5323528,5.42005834 C14.7790231,5.66864023 14.7774592,6.07005523 14.5288773,6.31672563 C14.2802954,6.56339602 13.8788804,6.56183206 13.63221,6.31325017 L11.72071,4.38089741 C11.4521442,4.15751257 11.4155651,3.75861727 11.6389499,3.4901384 C11.8623348,3.22157264 12.2612301,3.18499348 12.5297089,3.40837833 C12.5631602,3.43626885 12.5937442,3.46746106 12.6207658,3.5016074 L14.5323528,5.42005834 Z M30.6480357,16.2565258 C30.3111773,16.1605164 30.1158568,15.8096692 30.2118662,15.4728108 C30.3078756,15.1359523 30.6587228,14.9406318 30.9955812,15.0366412 L33.616074,15.7525849 C33.9529324,15.8485943 34.148253,16.1994414 34.0522435,16.5362999 C33.9562341,16.8731583 33.605387,17.0684789 33.2685285,16.9724694 L33.2685285,16.9724694 L30.6480357,16.2565258 Z M30.9955812,11.0641966 C30.6535096,11.1351828 30.3187364,10.9153603 30.2477503,10.5732886 C30.1816297,10.2544157 30.3683485,9.93745423 30.6793148,9.84083659 L33.3067585,9.14574567 C33.6488301,9.07475951 33.9836033,9.29458201 34.0545895,9.63665363 C34.12071,9.95552659 33.9339912,10.2724881 33.6230249,10.3691057 L30.9955812,11.0641966 Z M28.715683,6.39318563 C28.4671011,6.64081177 28.0649041,6.64002979 27.817278,6.3914479 C27.5696518,6.14286601 27.5704338,5.74066903 27.8190157,5.49304288 L29.7513685,3.58154285 C29.9999504,3.33487246 30.4013654,3.33643642 30.6480357,3.58501831 C30.8947061,3.8336002 30.8931422,4.23501521 30.6445603,4.4816856 L28.715683,6.39318563 Z M24.3956929,3.5016074 C24.2996835,3.83846584 23.9488363,4.03378638 23.6119779,3.93777695 C23.2751195,3.84176752 23.0797989,3.49092037 23.1758084,3.15406194 L23.1758084,3.15406194 L23.891752,0.533569168 C23.9877614,0.19671073 24.3386086,0.00139018184 24.675467,0.0973996152 C25.0123255,0.193409049 25.207646,0.544256191 25.1116366,0.881114628 L24.3956929,3.5016074 Z M23.700602,6.62951654 C27.0989884,7.98433563 28.7555638,11.8374853 27.4008316,15.2358717 C27.218544,15.6932415 26.9857755,16.1288028 26.7068702,16.5345622 C24.8235214,15.1762676 22.3428288,14.9728666 20.2633774,16.0062931 C19.8518836,13.2090734 17.92318,10.8707007 15.2552473,9.93467387 C16.7411779,6.76584125 20.4414076,5.3068454 23.6901756,6.60866381 L23.700602,6.62951654 Z" id="Shape" fill="#FFED00"></path>
                </g>
            </g>
        </g>
    </g>
</svg>